<svg version="1.1" x="0" y="0" width="100%" height="100%" viewBox="0 0 1800 1200" xmlns="http://www.w3.org/2000/svg" xmlns:xlink="http://www.w3.org/1999/xlink">
  <style type="text/css">.st1{stroke:#4795fc;stroke-opacity:1;stroke-width:2;stroke-linecap:butt;stroke-linejoin:miter;fill:none;}
.st2{stroke:#4795fc;stroke-opacity:1;stroke-width:2;stroke-linecap:butt;stroke-linejoin:miter;fill:none;}
.st3{stroke:#4795fc;stroke-opacity:1;stroke-width:2;stroke-linecap:butt;stroke-linejoin:miter;fill:none;}
.st4{stroke:#4795fc;stroke-opacity:1;stroke-width:2;stroke-linecap:butt;stroke-linejoin:miter;fill:none;}
.st5{stroke:#4795fc;stroke-opacity:1;stroke-width:2;stroke-linecap:butt;stroke-linejoin:miter;fill:none;}
.st6{stroke:#4795fc;stroke-opacity:1;stroke-width:2;stroke-linecap:butt;stroke-linejoin:miter;fill:none;}
.st7{stroke:#4795fc;stroke-opacity:1;stroke-width:2;stroke-linecap:butt;stroke-linejoin:miter;fill:none;}
.st8{stroke:#4795fc;stroke-opacity:1;stroke-width:2;stroke-linecap:butt;stroke-linejoin:miter;fill:none;}
.st9{stroke:#4795fc;stroke-opacity:1;stroke-width:2;stroke-linecap:butt;stroke-linejoin:miter;fill:none;}
.st10{stroke:#4795fc;stroke-opacity:1;stroke-width:2;stroke-linecap:butt;stroke-linejoin:miter;fill:none;}
.st11{stroke:#4795fc;stroke-opacity:1;stroke-width:2;stroke-linecap:butt;stroke-linejoin:miter;fill:none;}
.st12{stroke:#4795fc;stroke-opacity:1;stroke-width:2;stroke-linecap:butt;stroke-linejoin:miter;fill:none;}
.st13{stroke:#4795fc;stroke-opacity:1;stroke-width:2;stroke-linecap:butt;stroke-linejoin:miter;fill:none;}
.st14{stroke:#4795fc;stroke-opacity:1;stroke-width:2;stroke-linecap:butt;stroke-linejoin:miter;fill:none;}
.st15{stroke:#4795fc;stroke-opacity:1;stroke-width:2;stroke-linecap:butt;stroke-linejoin:miter;fill:none;}
.st16{stroke:#4795fc;stroke-opacity:1;stroke-width:2;stroke-linecap:butt;stroke-linejoin:miter;fill:none;}
.st17{stroke:#4795fc;stroke-opacity:1;stroke-width:2;stroke-linecap:butt;stroke-linejoin:miter;fill:none;}</style>
  <defs/>
  <path class="st1" id="path_1" d="M 521.5 568.9 C 521.5 568.9 517.95 573.75 517.95 573.75 C 517.95 573.75 512.65 580.6 512.65 580.6 C 512.65 580.6 508.8 587.95 508.8 587.5 C 508.8 587.05 504.2 595.75 504.2 595.75 C 504.2 595.75 499.65 605.75 499.65 605.75 C 499.65 605.75 496.65 614.6 496.65 614.6 C 496.65 614.6 493.5 626.05 493.5 626.05 C 493.5 626.05 491.5 637.5 491.5 637.5 C 491.5 637.5 491.2 647.9 491.2 647.9 C 491.2 647.9 491.95 659.75 491.95 659.75 C 491.95 659.75 494.95 672.9 494.95 672.9 C 494.95 672.9 499.2 683.35 499.2 683.35 C 499.2 683.35 503.65 691.75 503.65 691.75 C 503.65 691.75 510.2 702.5 510.2 702.5 C 510.2 702.5 518.65 713.5 518.65 713.6 C 518.65 713.7 527.5 721.9 527.5 721.9 C 527.5 721.9 540.8 731.9 540.8 731.9 C 540.8 731.9 555.5 736.75 555.5 736.75 C 555.5 736.75 571.5 739.35 571.5 739.35 C 571.5 739.35 587.8 737.5 587.8 737.5 C 587.8 737.5 597.8 732.6 597.8 732.6 C 597.8 732.6 607.95 727.6 607.95 727.6 C 607.95 727.6 611.5 726.05 611.5 726.05 C 611.5 726.05 614.8 727.05 614.8 727.05 C 614.8 727.05 617.35 728.6 617.35 728.6 C 617.35 728.6 622.95 731.2 622.95 731.2 C 622.95 731.2 628.35 731.2 628.35 731.2 C 628.35 731.2 634.1 728.85 634.1 728.85 C 634.1 728.85 636.95 724.5 636.95 724.5 C 636.95 724.5 638.8 719.2 638.8 719.2 C 638.8 719.2 638.8 714.05 638.8 714.05 C 638.8 714.05 636.5 709.75 636.5 709.75 C 636.5 709.75 633.35 706.5 633.35 706.5 C 633.35 706.5 626.8 703.6 626.8 703.6 C 626.8 703.6 620.35 700.05 620.35 700.05 C 620.35 700.05 613.8 699.05 613.8 699.05 C 613.8 699.05 605.95 699.05 605.95 699.05 C 605.95 699.05 600.5 700.6 600.5 700.6 C 600.5 700.6 592.65 704.9 592.65 704.9 C 592.65 704.9 584.8 709.2 584.8 709.2 C 584.8 709.2 578.35 711.05 578.35 711.05 C 578.35 711.05 571.95 713.05 571.95 713.05 C 571.95 713.05 565.8 711.5 565.8 711.5 C 565.8 711.5 558.5 709.75 558.5 709.75 C 558.5 709.75 549.5 705.9 549.5 705.9 C 549.5 705.9 543.95 700.6 543.95 700.6 C 543.95 700.6 536.5 693.5 536.5 693.5 C 536.5 693.5 530.2 683.5 530.2 683.5 C 530.2 683.5 525.35 674.6 525.35 674.6 C 525.35 674.6 523.35 671.5 523.35 671.5 C 523.35 671.5 518.8 656.9 518.8 656.9 C 518.8 656.9 518.5 638.6 518.5 638.6 C 518.5 638.6 519.8 633.5 519.8 633.5 C 519.8 633.5 520.8 627.9 520.8 627.9 C 520.8 627.9 523.35 618.5 523.35 618.5 C 523.35 618.5 531.65 600.35 531.65 600.35 C 531.65 600.35 539.65 589.5 539.65 589.5 C 539.65 589.5 549.2 580.05 549.2 580.05 C 549.2 580.05 557.95 574.6 557.95 574.6 C 557.95 574.6 566.85 569.55 566.85 569.55 C 566.85 569.55 572.8 567.75 572.8 567.75 C 572.8 567.75 581.1 567.35 581.1 567.35 C 581.1 567.35 589.5 568.35 589.5 568.35 C 589.5 568.35 596.5 569.05 596.5 569.05 C 596.5 569.05 598.8 571.35 598.8 571.35 C 598.8 571.35 602.95 576.2 602.95 576.2 C 602.95 576.2 605.5 579.75 605.5 579.75 C 605.5 579.75 611.35 581.75 611.35 581.75 C 611.35 581.75 615.65 582.6 615.65 582.6 C 615.65 582.6 622.2 579.5 622.2 579.5 C 622.2 579.5 626.5 573.2 626.5 573.2 C 626.5 573.2 626.8 567.35 626.8 567.35 C 626.8 567.35 625.1 561.5 625.1 561.5 C 625.1 561.5 621.1 555.55 621.1 555.55 C 621.1 555.55 615.1 547.9 615.1 547.9 C 615.1 547.9 609.5 545.05 609.5 545.05 C 609.5 545.05 604.95 543.35 604.95 543.35 C 604.95 543.35 600.95 543.05 600.95 543.05 C 600.95 543.05 590.95 541.75 590.95 541.75 C 590.95 541.75 567.35 540.75 567.35 540.75 C 567.35 540.75 561.65 542.75 561.65 542.75 C 561.65 542.75 556.65 544.35 556.65 544.35 C 556.65 544.35 549.5 548.2 549.5 548.2 C 549.5 548.2 543.35 551.2 543.35 551.2 C 543.35 551.2 537.5 555.05 537.5 555.05 C 537.5 555.05 531.35 560.2 531.35 560.2 C 531.35 560.2 521.5 568.9 521.5 568.9  Z "/>
  <path class="st2" id="path_2" d="M 712.95 711.65 C 712.95 711.65 722.4 678.05 722.4 678.05 C 722.4 678.05 731.4 641.65 731.4 641.65 C 731.4 641.65 737.4 620.65 737.4 620.65 C 737.4 620.65 743.8 604.45 743.8 604.45 C 743.8 604.45 755.8 589.65 755.8 589.65 C 755.8 589.65 767.8 580.05 767.8 580.05 C 767.8 580.05 793.95 571.85 793.95 571.85 C 793.95 571.85 815.6 571.85 815.6 571.85 C 815.6 571.85 829.4 573.55 829.4 573.55 C 829.4 573.55 839.15 574.65 839.15 574.65 C 839.15 574.65 854.95 576.85 854.95 576.85 C 854.95 576.85 864.95 583.65 864.95 583.65 C 864.95 583.65 877.8 591.85 877.8 591.85 C 877.8 591.85 889.6 601.05 889.6 601.05 C 889.6 601.05 894.6 610.65 894.6 610.65 C 894.6 610.65 895.15 621.45 895.15 621.45 C 895.15 621.45 889.15 627.05 889.15 627.05 C 889.15 627.05 882.4 628.85 882.4 628.85 C 882.4 628.85 871.95 623.25 871.95 623.25 C 871.95 623.25 866.4 617.05 866.4 617.05 C 866.4 617.05 854.6 609.25 854.6 609.25 C 854.6 609.25 846.95 603.25 846.95 603.25 C 846.95 603.25 838.15 601.05 838.15 601.05 C 838.15 601.05 828.95 600.65 828.95 600.65 C 828.95 600.65 817.15 598.85 817.15 598.85 C 817.15 598.85 797.15 598.85 797.15 598.85 C 797.15 598.85 780.8 603.45 780.8 603.45 C 780.8 603.45 773.4 609.45 773.4 609.45 C 773.4 609.45 766.95 617.45 766.95 617.45 C 766.95 617.45 759.15 640.05 759.15 640.05 C 759.15 640.05 739.6 717.2500000000001 739.6 717.45 C 739.6 717.65 739.6 725.85 739.6 725.85 C 739.6 725.85 735 731.75 735 731.75 C 735 731.75 731.4 735.05 731.4 735.05 C 731.4 735.05 725.8 735.85 725.8 735.85 C 725.8 735.85 719.6 734.65 719.6 734.65 C 719.6 734.65 713.95 728.25 713.95 728.25 C 713.95 728.25 712.2 720.4 712.2 720.4 C 712.2 720.4 712.95 711.65 712.95 711.65  Z "/>
  <path class="st3" id="path_3" d="M 600.8 647.05 C 600.8 647.05 607.8 649.45 607.8 649.45 C 607.8 649.45 624.95 648.45 624.95 648.45 C 624.95 648.45 646.95 645.25 646.95 645.25 C 646.95 645.25 670.15 645.25 670.15 645.25 C 670.15 645.25 680.75 648.4 680.75 648.4 C 680.75 648.4 690.7500000000001 654.4499999999999 690.95 654.65 C 691.15 654.85 695.95 661.65 695.95 661.65 C 695.95 661.65 697.8 668.85 697.8 668.85 C 697.8 668.85 697.4 679.85 697.4 679.85 C 697.4 679.85 693.15 695.25 693.15 695.25 C 693.15 695.25 692.8 712.25 692.8 712.25 C 692.8 712.25 699.8 736.65 699.8 736.65 C 699.8 736.65 706.15 753.05 706.15 753.05 C 706.15 753.05 710.6 769.6499999999999 710.6 770.05 C 710.6 770.45 716.6 784.85 716.6 784.85 C 716.6 784.85 723.2 797.4499999999999 723.6 797.65 C 724 797.85 742.8 826.05 742.8 826.05 C 742.8 826.05 764.15 847.05 764.15 847.05 C 764.15 847.05 788.8 872.05 788.8 872.05 C 788.8 872.05 836 900.75 836 900.75 C 836 900.75 845.6 907.05 845.6 907.05 C 845.6 907.05 863.8 915.45 863.8 915.45 C 863.8 915.45 895.4 924.25 895.4 924.25 C 895.4 924.25 924.15 933.45 924.15 933.45 C 924.15 933.45 934.15 934.85 934.15 934.85 C 934.15 934.85 949.2 935.4 949.2 935.4 C 949.2 935.4 970.95 936.05 970.95 936.05 C 970.95 936.05 996.6 937.05 996.6 937.05 C 996.6 937.05 1045.8 925.75 1045.8 925.75 C 1045.8 925.75 1059.2 922.45 1059.2 922.45 C 1059.2 922.45 1073.4 915.65 1073.4 915.65 C 1073.4 915.65 1098.8 903.75 1098.8 903.75 C 1098.8 903.75 1114.8 894.55 1114.8 894.55 C 1114.8 894.55 1136.2 877.45 1136.2 877.45 C 1136.2 877.45 1156.2 861.05 1156.2 861.05 C 1156.2 861.05 1174.2 844.65 1174.2 844.65 C 1174.2 844.65 1184.2 833.25 1184.2 833.25 C 1184.2 833.25 1195.55 821.25 1195.55 821.25 C 1195.55 821.25 1213.95 793.85 1213.95 793.85 C 1213.95 793.85 1221.4 784 1221.4 784 C 1221.4 784 1232.2 765.85 1232.2 765.85 C 1232.2 765.85 1240.55 754.45 1240.55 754.45 C 1240.55 754.45 1246.95 737.05 1246.95 737.05 C 1246.95 737.05 1253.4 714.65 1253.4 714.65 C 1253.4 714.65 1255.4 702.55 1255.4 702.55 C 1255.4 702.55 1255.55 677.05 1255.55 677.05 C 1255.55 677.05 1257.8 670.45 1257.8 670.45 C 1257.8 670.45 1259.55 667.2 1259.55 667.2 C 1259.55 667.2 1264.2 662.25 1264.2 662.25 C 1264.2 662.25 1268.8 659.85 1268.8 659.85 C 1268.8 659.85 1275.2 659.85 1275.2 659.85 C 1275.2 659.85 1284.2 660.25 1284.2 660.25 C 1284.2 660.25 1290.95 660.25 1290.95 660.25 C 1290.95 660.25 1303.8 661.25 1303.8 661.25 C 1303.8 661.25 1318.4 661.65 1318.4 661.65 C 1318.4 661.65 1327.4 661.65 1327.4 661.65 C 1327.4 661.65 1334.8 659.45 1334.8 659.45 C 1334.8 659.45 1341.2 657.25 1341.2 657.25 C 1341.2 657.25 1346.2 658.05 1346.2 658.05 C 1346.2 658.05 1350.3999999999999 660.05 1350.55 660.25 C 1350.7 660.45 1353.4 664.05 1353.4 664.05 C 1353.4 664.05 1354.8 669.45 1354.8 669.45 C 1354.8 669.45 1354.4 675.45 1354.4 675.45 C 1354.4 675.45 1351.55 680.45 1351.55 680.45 C 1351.55 680.45 1346.95 683.65 1346.95 683.65 C 1346.95 683.65 1341.55 685.45 1341.55 685.45 C 1341.55 685.45 1333.8 686.65 1333.8 686.65 C 1333.8 686.65 1327.4 687.65 1327.4 687.65 C 1327.4 687.65 1293.95 688.65 1293.95 688.65 C 1293.95 688.65 1289.4 687.25 1289.4 687.25 C 1289.4 687.25 1283.8 686.45 1283.8 686.45 C 1283.8 686.45 1281.2 690.05 1281.2 690.05 C 1281.2 690.05 1281.2 710.85 1281.2 710.85 C 1281.2 710.85 1279 725.2 1279 725.2 C 1279 725.2 1276.15 736.2 1276.15 736.2 C 1276.15 736.2 1268.8 755.85 1268.8 755.85 C 1268.8 755.85 1256.95 778.25 1256.95 778.25 C 1256.95 778.25 1238.15 806.75 1238.15 806.75 C 1238.15 806.75 1225.4 825.65 1225.4 825.25 C 1225.4 824.85 1214.8 838.25 1214.8 838.25 C 1214.8 838.25 1206.2 848.25 1206.2 848.25 C 1206.2 848.25 1192.55 862.85 1192.55 862.85 C 1192.55 862.85 1176.95 879.25 1176.95 879.25 C 1176.95 879.25 1166.95 886.45 1166.95 886.45 C 1166.95 886.45 1155.95 894.65 1155.95 894.65 C 1155.95 894.65 1143.8 905.05 1143.8 905.05 C 1143.8 905.05 1124.3999999999999 918.65 1124.8 918.65 C 1125.2 918.65 1106.2 930.45 1106.2 930.45 C 1106.2 930.45 1080.55 941.85 1080.55 941.85 C 1080.55 941.85 1061.4 950.05 1061.4 950.05 C 1061.4 950.05 1042.95 953.65 1042.95 953.65 C 1042.95 953.65 1011.95 960.85 1011.95 960.85 C 1011.95 960.85 996.1500000000001 962.65 996.95 962.65 C 997.75 962.65 976.4 964.45 976.4 964.45 C 976.4 964.45 951.95 963.05 951.95 963.05 C 951.95 963.05 935.15 962.05 935.15 962.05 C 935.15 962.05 925.5999999999999 960.65 925.8 960.65 C 926 960.65 910.6 957.45 910.6 957.45 C 910.6 957.45 884.95 949.65 884.95 949.65 C 884.95 949.65 853.6 940.05 853.6 940.05 C 853.6 940.05 839.95 934.65 839.95 934.65 C 839.95 934.65 823.6 924.65 823.6 924.65 C 823.6 924.65 789.6 904.85 789.6 904.85 C 789.6 904.85 775.8 895.25 775.8 895.25 C 775.8 895.25 750.75 872.4 750.75 872.4 C 750.75 872.4 740.95 863.05 740.95 863.05 C 740.95 863.05 723.8 846.25 723.8 846.25 C 723.8 846.25 700.2 810 700.2 810 C 700.2 810 692.15 797.25 692.15 797.25 C 692.15 797.25 682.8 770.45 682.8 770.45 C 682.8 770.45 674.4 744.45 674.4 744.45 C 674.4 744.45 667.6 722.05 667.6 722.05 C 667.6 722.05 667.15 711.65 667.15 711.65 C 667.15 711.65 666.8 690.65 666.8 690.65 C 666.8 690.65 670.8 676.05 670.8 676.05 C 670.8 676.05 669.95 671.45 669.95 671.45 C 669.95 671.45 646.75 671.55 646.75 671.55 C 646.75 671.55 640.8 672.45 640.8 672.45 C 640.8 672.45 628.4 672.85 628.4 672.85 C 628.4 672.85 626.6 675.25 626.6 675.25 C 626.6 675.25 611.95 673.85 611.95 673.85 C 611.95 673.85 607.95 676.05 607.95 676.05 C 607.95 676.05 601.95 676.05 601.95 676.05 C 601.95 676.05 595.2 673 595.2 673 C 595.2 673 589.8 667.85 589.8 667.85 C 589.8 667.85 586.6 661.45 586.6 661.45 C 586.6 661.45 587.95 655.25 587.95 655.25 C 587.95 655.25 590.95 651.05 590.95 651.05 C 590.95 651.05 595.6 647.85 595.6 647.85 C 595.6 647.85 600.8 647.05 600.8 647.05  Z "/>
  <path class="st4" id="path_4" d="M 778.15 720.85 C 778.15 720.85 769.95 719.05 769.95 719.05 C 769.95 719.05 763.6 719.65 763.6 719.65 C 763.6 719.65 758.15 721.45 758.15 721.45 C 758.15 721.45 754.95 727.25 754.95 727.25 C 754.95 727.25 754.6 734.65 754.6 734.65 C 754.6 734.65 758.6 741.05 758.6 741.05 C 758.6 741.05 762.15 743.45 762.15 743.45 C 762.15 743.45 774.8 756.25 774.8 756.25 C 774.8 756.25 787.3999999999999 763.05 787.8 763.05 C 788.2 763.05 804.8 764.45 804.8 764.45 C 804.8 764.45 819.8 762.05 819.8 762.05 C 819.8 762.05 835.8 757.85 835.8 757.85 C 835.8 757.85 849.95 757.65 849.95 757.65 C 849.95 757.65 864.8 760.85 864.8 760.85 C 864.8 760.85 877.8 759.45 877.8 759.45 C 877.8 759.45 886.55 756 886.55 756 C 886.55 756 892.4 749.05 892.4 749.05 C 892.4 749.05 891.6 739.45 891.6 739.45 C 891.6 739.45 887.95 734.45 887.95 734.45 C 887.95 734.45 882 730.4 882 730.4 C 882 730.4 876.6 730.25 876.6 730.25 C 876.6 730.25 868.4 733.05 868.4 733.05 C 868.4 733.05 860.6 732.05 860.6 732.05 C 860.6 732.05 854.8 730.85 854.8 730.85 C 854.8 730.85 850.6 729.85 850.6 729.85 C 850.6 729.85 852.8 725.85 852.8 725.85 C 852.8 725.85 858.4 720.25 858.4 720.25 C 858.4 720.25 865.6 708.85 865.6 708.85 C 865.6 708.85 871.6 696.45 871.6 696.45 C 871.6 696.45 876.15 683.25 876.15 683.25 C 876.15 683.25 876.6 666.05 876.6 666.05 C 876.6 666.05 876.15 657.85 876.15 657.85 C 876.15 657.85 871.6 649.25 871.6 649.25 C 871.6 649.25 864.8 641.05 864.8 641.05 C 864.8 641.05 857.05 635.15 857.05 635.15 C 857.05 635.15 848.4 631.45 848.4 631.45 C 848.4 631.45 842.8 631.45 842.8 631.45 C 842.8 631.45 833.4 628.25 833.4 628.25 C 833.4 628.25 825 627.25 824.6 627.25 C 824.2 627.25 815.6 628.25 815.6 628.25 C 815.6 628.25 810.15 628.65 810.15 628.65 C 810.15 628.65 803.8 628.65 803.8 628.65 C 803.8 628.65 796.95 632.85 796.95 632.85 C 796.95 632.85 792.8 639.25 792.8 639.25 C 792.8 639.25 790.95 646.05 790.95 646.05 C 790.95 646.05 786.95 653.25 786.95 653.25 C 786.95 653.25 783.15 662.45 783.15 662.45 C 783.15 662.45 778.8 675.65 778.8 675.65 C 778.8 675.65 775.6 690.25 775.6 690.25 C 775.6 690.25 775.6 711.65 775.6 711.65 C 775.6 711.65 778.15 720.85 778.15 720.85  Z "/>
  <path class="st5" id="path_5" d="M 848.8 803.05 C 848.8 803.05 838.8 800.85 838.8 800.85 C 838.8 800.85 831.95 803.65 831.95 803.65 C 831.95 803.65 828.4 806.25 828.4 806.25 C 828.4 806.25 825.95 812.25 825.95 812.25 C 825.95 812.25 825.6 815.45 825.6 815.45 C 825.6 815.45 828.4 822.4 828.4 822.4 C 828.4 822.4 831.6 826.25 831.6 826.25 C 831.6 826.25 837.4 829.45 837.4 829.45 C 837.4 829.45 844.4000000000001 835.05 844.6 835.05 C 844.8 835.05 854.4 842.65 854.4 842.65 C 854.4 842.65 862.4 847.4499999999999 862.4 847.65 C 862.4 847.85 870.75 852.85 871.15 853.25 C 871.55 853.65 881.6 857.65 881.6 857.65 C 881.6 857.65 889.4 861.85 889.4 861.85 C 889.4 861.85 897.4000000000001 864.65 897.6 864.65 C 897.8 864.65 904.8 867.05 904.8 867.25 C 904.8 867.45 912.55 872.4 912.55 872.4 C 912.55 872.4 918.6 877.05 918.6 877.05 C 918.6 877.05 926.4 883.05 926.4 883.05 C 926.4 883.05 937.15 889.45 937.15 889.45 C 937.15 889.45 948.15 890.25 948.15 890.25 C 948.15 890.25 957.8 884.85 957.8 884.85 C 957.8 884.85 962.8 877.05 962.8 877.05 C 962.8 877.05 973.8 866.25 973.8 866.25 C 973.8 866.25 979.8 861.65 979.8 861.65 C 979.8 861.65 994.4 852.75 994.4 852.75 C 994.4 852.75 1009.4 843.45 1009.4 843.45 C 1009.4 843.45 1032.4 833.05 1032.4 833.05 C 1032.4 833.05 1046.8 822.65 1046.8 822.65 C 1046.8 822.65 1092.6499999999999 786.25 1092.8 786.25 C 1092.95 786.25 1097.8 781.05 1097.8 781.05 C 1097.8 781.05 1104.8 776.65 1104.8 776.65 C 1104.8 776.65 1109.8 769.85 1109.8 769.85 C 1109.8 769.85 1110.2 765.25 1110.2 765.25 C 1110.2 765.25 1108.4 760.25 1108.4 760.25 C 1108.4 760.25 1104.8 755.65 1104.8 755.65 C 1104.8 755.65 1100.2 753.85 1100.2 753.85 C 1100.2 753.85 1097.8 753.45 1097.8 753.45 C 1097.8 753.45 1092.8 753.85 1092.8 753.85 C 1092.8 753.85 1087.4 755.25 1087.4 755.25 C 1087.4 755.25 1083.8 756.65 1083.8 756.65 C 1083.8 756.65 1080.55 759.85 1080.55 759.85 C 1080.55 759.85 1076.95 764.25 1076.95 764.25 C 1076.95 764.25 1069.2 770.65 1069.2 770.65 C 1069.2 770.65 1039.8 793.65 1039.8 793.65 C 1039.8 793.65 1030.95 799.65 1030.95 799.65 C 1030.95 799.65 1023.55 805.65 1023.55 805.65 C 1023.55 805.65 1013.95 811.05 1013.95 811.25 C 1013.95 811.45 1008.95 813.85 1008.95 813.85 C 1008.95 813.85 1003.6 817.45 1003.6 817.45 C 1003.6 817.45 983.95 826.65 983.95 826.65 C 983.95 826.65 974.95 832.45 974.95 832.45 C 974.95 832.45 969.4 836.05 969.4 836.05 C 969.4 836.05 964.4 839.85 964.4 839.85 C 964.4 839.85 959.4 843.85 959.4 843.85 C 959.4 843.85 955.15 846.65 955.15 846.65 C 955.15 846.65 943.4 859.05 943.4 859.05 C 943.4 859.05 940.6 859.85 940.6 859.85 C 940.6 859.85 932.4 853.85 932.4 853.85 C 932.4 853.85 924.8 848.25 924.8 848.25 C 924.8 848.25 914.15 841.85 914.15 841.85 C 914.15 841.85 905.6 838.65 905.6 838.65 C 905.6 838.65 897.4 836.05 897.4 836.05 C 897.4 836.05 890.15 832.85 890.15 832.85 C 890.15 832.85 880.6 827.45 880.6 827.45 C 880.6 827.45 872.4 822.45 872.4 822.45 C 872.4 822.45 866.4 817.25 866.4 817.25 C 866.4 817.25 859.6 811.85 859.6 811.85 C 859.6 811.85 855.6 806.45 855.6 806.45 C 855.6 806.45 848.8 803.05 848.8 803.05  Z "/>
  <path class="st6" id="path_6" d="M 943.8 752.25 C 943.8 752.25 939.8 758.25 939.8 758.25 C 939.8 758.25 939.8 763.65 939.8 763.65 C 939.8 763.65 940.6 768.25 940.6 768.25 C 940.6 768.25 944.4 772.25 944.4 772.25 C 944.4 772.25 946.95 775.05 946.95 775.05 C 946.95 775.05 951.95 776.45 951.95 776.45 C 951.95 776.45 956.95 778.25 956.95 778.25 C 956.95 778.25 962.6 781.05 962.6 781.05 C 962.6 781.05 971.15 782.85 971.15 782.85 C 971.15 782.85 977.6 781.45 977.6 781.45 C 977.6 781.45 983.4 776.85 983.4 776.85 C 983.4 776.85 985.8 770.45 985.8 770.45 C 985.8 770.45 983.95 762.85 983.95 762.85 C 983.95 762.85 978.95 758.25 978.95 758.25 C 978.95 758.25 975.8 755.85 975.8 755.85 C 975.8 755.85 969.4 754.05 969.4 754.05 C 969.4 754.05 964.8 751.85 964.8 751.85 C 964.8 751.85 958.8 749.65 958.8 749.65 C 958.8 749.65 953.8 748.25 953.8 748.25 C 953.8 748.25 949.8 749.65 949.8 749.65 C 949.8 749.65 943.4 751.5 943.8 752.25  Z "/>
  <path class="st7" id="path_7" d="M 1034.95 710.85 C 1034.95 710.85 1028.8 710.85 1028.8 710.85 C 1028.8 710.85 1021.8 712.65 1021.8 712.65 C 1021.8 712.65 1010.15 714.45 1010.15 714.45 C 1010.15 714.45 995.15 713.05 995.15 713.05 C 995.15 713.05 988.15 716.85 988.15 716.85 C 988.15 716.85 984.15 723.65 984.15 723.65 C 984.15 723.65 985.95 733.25 985.95 733.25 C 985.95 733.25 992.4 739.45 992.4 739.45 C 992.4 739.45 1003 742.2 1003 742.2 C 1003 742.2 1017.6 740.85 1017.6 740.85 C 1017.6 740.85 1030.8 738.25 1030.8 738.25 C 1030.8 738.25 1045.2 736.45 1045.2 736.45 C 1045.2 736.45 1059.4 735.05 1059.4 735.05 C 1059.4 735.05 1082.2 735.85 1082.2 735.85 C 1082.2 735.85 1092.15 735.75 1092.15 735.75 C 1092.15 735.75 1110.55 736.85 1110.55 736.85 C 1110.55 736.85 1114.2 734.85 1114.2 734.85 C 1114.2 734.85 1118.55 730.65 1118.55 730.65 C 1118.55 730.65 1121.2 724.65 1121.2 724.65 C 1121.2 724.65 1119.4 718.25 1119.4 718.25 C 1119.4 718.25 1115 712.4 1115 712.4 C 1115 712.4 1108.95 709.65 1108.95 709.65 C 1108.95 709.65 1095.4 709.65 1095.4 709.65 C 1095.4 709.65 1090.8 708.25 1090.8 708.25 C 1090.8 708.25 1094.8 703.65 1094.8 703.65 C 1094.8 703.65 1098.55 697.25 1098.55 696.85 C 1098.55 696.45 1101.8 687.25 1101.8 687.25 C 1101.8 687.25 1104.4 678.25 1104.4 678.25 C 1104.4 678.25 1106.0000000000002 667.25 1105.4 667.25 C 1104.8 667.25 1105.4 655.05 1105.4 655.05 C 1105.4 655.05 1103.55 649.05 1103.55 649.05 C 1103.55 649.05 1100.8 640.85 1100.8 640.85 C 1100.8 640.85 1096.55 634.05 1096.55 634.05 C 1096.55 634.05 1087.95 629.05 1087.95 629.05 C 1087.95 629.05 1081.55 628.65 1081.55 628.65 C 1081.55 628.65 1073.95 623.65 1073.95 623.65 C 1073.95 623.65 1064.4 623.25 1064.4 623.25 C 1064.4 623.25 1062.4 622.85 1062.4 622.85 C 1062.4 622.85 1055.55 626.45 1055.55 626.45 C 1055.55 626.45 1053.8000000000002 628.65 1053.4 628.65 C 1053 628.65 1049.2 629.65 1049.2 629.65 C 1049.2 629.65 1045.2 631.2500000000001 1045.2 631.45 C 1045.2 631.65 1040.2 634.65 1040.2 634.65 C 1040.2 634.65 1032.8 643.65 1032.8 643.65 C 1032.8 643.65 1028.4 651.85 1028.4 651.85 C 1028.4 651.85 1025.55 661.45 1025.55 661.45 C 1025.55 661.45 1023.8 670.65 1023.8 670.65 C 1023.8 670.65 1022.8 681.05 1022.8 681.05 C 1022.8 681.05 1025.95 689.65 1025.95 689.65 C 1025.95 689.65 1029.0500000000002 697.45 1029.2 697.45 C 1029.35 697.45 1033.0500000000002 702.45 1033.4 702.45 C 1033.75 702.45 1036.55 704.65 1036.55 704.65 C 1036.55 704.65 1037.8 708.45 1037.8 708.45 C 1037.8 708.45 1034.95 710.85 1034.95 710.85  Z "/>
  <path class="st8" id="path_8" d="M 1009.4 608.45 C 1009.4 608.45 1005.8 609.85 1005.8 609.85 C 1005.8 609.85 1001.95 610.85 1001.95 610.85 C 1001.95 610.85 998.4 614.45 998.4 614.45 C 998.4 614.45 995.8 620.25 995.8 620.25 C 995.8 620.25 997.15 628.05 997.15 628.05 C 997.15 628.05 1001.6 632.25 1001.6 632.25 C 1001.6 632.25 1006.15 634.45 1006.15 634.45 C 1006.15 634.45 1019.8 635.45 1019.8 635.45 C 1019.8 635.45 1025.4 633.45 1025.4 633.45 C 1025.4 633.45 1029.4 629.85 1029.4 629.85 C 1029.4 629.85 1031.2 627.25 1031.2 627.25 C 1031.2 627.25 1037.2 623.45 1037.2 623.45 C 1037.2 623.45 1043.1999999999998 619.85 1043.55 619.85 C 1043.9 619.85 1051.8 615.25 1051.8 615.25 C 1051.8 615.25 1061.4 610.85 1061.4 610.85 C 1061.4 610.85 1069.2 608.25 1069.2 608.25 C 1069.2 608.25 1099.2 607.25 1099.2 607.25 C 1099.2 607.25 1106.4 606.25 1106.4 606.25 C 1106.4 606.25 1113.8 607.25 1113.8 607.25 C 1113.8 607.25 1117.4 607.25 1117.4 607.25 C 1117.4 607.25 1122.8 610.85 1122.8 611.25 C 1122.8 611.65 1127.8 615.85 1127.8 615.85 C 1127.8 615.85 1134.55 620.85 1134.55 620.85 C 1134.55 620.85 1140.2 628.65 1140.2 628.65 C 1140.2 628.65 1142.4 637.45 1142.4 637.45 C 1142.4 637.45 1145.2 650.25 1145.2 650.25 C 1145.2 650.25 1149.4 664.25 1149.4 664.25 C 1149.4 664.25 1151.95 676.85 1151.95 676.85 C 1151.95 676.85 1151.55 709.65 1151.55 709.65 C 1151.55 709.65 1152.55 714.65 1152.55 714.65 C 1152.55 714.65 1156.55 721.05 1156.55 721.05 C 1156.55 721.05 1162.55 724.65 1162.55 724.65 C 1162.55 724.65 1167.0500000000002 726.45 1167.2 726.45 C 1167.35 726.45 1173.55 724.65 1173.55 724.65 C 1173.55 724.65 1178.2 721.45 1178.2 721.45 C 1178.2 721.45 1180.8 715.05 1180.8 715.05 C 1180.8 715.05 1180.8 709.65 1180.8 709.65 C 1180.8 709.65 1178.95 705.45 1178.95 705.45 C 1178.95 705.45 1178.8 676.2499999999999 1178.8 676.05 C 1178.8 675.85 1175.2 655.65 1175.2 655.65 C 1175.2 655.65 1170.2 635.45 1170.2 635.45 C 1170.2 635.45 1165.2 621.45 1165.2 621.45 C 1165.2 621.45 1162.4 613.65 1162.4 613.65 C 1162.4 613.65 1155.95 606.0500000000001 1155.95 605.45 C 1155.95 604.85 1149.95 599.85 1149.95 599.85 C 1149.95 599.85 1143.55 593.05 1143.55 593.05 C 1143.55 593.05 1133.95 586.25 1133.95 586.25 C 1133.95 586.25 1124.55 581.25 1124.55 581.25 C 1124.55 581.25 1118.55 580.45 1118.55 580.45 C 1118.55 580.45 1090.55 580.45 1090.55 580.45 C 1090.55 580.45 1087.4 581.65 1087.4 581.65 C 1087.4 581.65 1068.4 580.25 1068.4 580.25 C 1068.4 580.25 1062.8 582.45 1062.8 582.45 C 1062.8 582.45 1056 583.4 1056 583.4 C 1056 583.4 1045.8 588.4 1045.8 588.4 C 1045.8 588.4 1023.15 601.25 1023.15 601.25 C 1023.15 601.25 1009.4 608.45 1009.4 608.45  Z "/>
  <path class="st9" id="path_9" d="M 1313.4 577.4 C 1313.4 577.4 1321.95 577 1321.95 577 C 1321.95 577 1327.55 576.6 1327.55 576.6 C 1327.55 576.6 1336.55 581.2 1336.55 581.2 C 1336.55 581.2 1345.8 583 1345.8 583 C 1345.8 583 1361.55 586.2 1361.55 586.2 C 1361.55 586.2 1377.55 590.2 1377.55 590.2 C 1377.55 590.2 1388.95 593 1388.95 593 C 1388.95 593 1397.95 596.2 1397.95 596.2 C 1397.95 596.2 1409.2000000000003 603.1999999999999 1409.4 603.4 C 1409.6 603.6 1417.2 608.4 1417.2 608.4 C 1417.2 608.4 1426.8 618 1426.8 618 C 1426.8 618 1434.55 630.8 1434.55 630.8 C 1434.55 630.8 1440.4 643.2 1440.4 643.2 C 1440.4 643.2 1443.2 652.6 1443.2 652.6 C 1443.2 652.6 1444.2 674 1444.2 674 C 1444.2 674 1439.4 686.6 1439.4 686.6 C 1439.4 686.6 1432.55 700.4 1432.55 700.4 C 1432.55 700.4 1423.8 711.4 1423.8 711.4 C 1423.8 711.4 1410.55 725.4 1410.55 725.4 C 1410.55 725.4 1401.95 732.4 1401.95 732.4 C 1401.95 732.4 1394.55 738.2 1394.55 738.2 C 1394.55 738.2 1381.4 746.4 1381.4 746.4 C 1381.4 746.4 1372.8 751.8 1372.8 751.8 C 1372.8 751.8 1362.4 757.6 1362.4 757.6 C 1362.4 757.6 1346.8 761.8 1346.8 761.8 C 1346.8 761.8 1339.55 762.2 1339.55 762.2 C 1339.55 762.2 1333.55 759.2 1333.55 759.2 C 1333.55 759.2 1329.55 753.6 1329.55 753.6 C 1329.55 753.6 1329.95 744 1329.95 744 C 1329.95 744 1334.95 736.6 1334.95 736.6 C 1334.95 736.6 1339.95 735.8 1339.95 735.8 C 1339.95 735.8 1345.55 734.8 1345.55 734.8 C 1345.55 734.8 1353.4 731.2 1353.4 731.2 C 1353.4 731.2 1365.2 724.8 1365.2 724.8 C 1365.2 724.8 1378.4 717 1378.4 717 C 1378.4 717 1390.4 707.8 1390.4 707.8 C 1390.4 707.8 1395.4 701.8 1395.4 701.8 C 1395.4 701.8 1404.55 694.6 1404.55 694.6 C 1404.55 694.6 1412.2 682.6 1412.2 682.6 C 1412.2 682.6 1415.8 672.2 1415.8 672.2 C 1415.8 672.2 1416.8 655.6 1416.8 655.6 C 1416.8 655.6 1412.2 644.8 1412.2 644.8 C 1412.2 644.8 1403.55 633.2 1403.55 633.2 C 1403.55 633.2 1396.15 626.2 1396.15 626.2 C 1396.15 626.2 1382.95 619.4 1382.95 619.4 C 1382.95 619.4 1354.2 612.6 1354.2 612.6 C 1354.2 612.6 1330.95 607.4 1330.95 607.4 C 1330.95 607.4 1316.95 603.4 1316.95 603.4 C 1316.95 603.4 1309.2 597 1309.2 597 C 1309.2 597 1307.8 593.2 1307.8 593.2 C 1307.8 593.2 1307.4 585.6 1307.4 585.6 C 1307.4 585.6 1309.2 581 1309.2 581 C 1309.2 581 1313.4 577.4 1313.4 577.4  Z "/>
  <path class="st10" id="path_10" d="M 705.6 537.25 C 705.6 537.25 698.8 544.05 698.8 544.05 C 698.8 544.05 696.95 549.05 696.95 549.05 C 696.95 549.05 697.95 554.85 697.95 554.85 C 697.95 554.85 701.4 560.05 701.4 560.05 C 701.4 560.05 707.8 562.85 707.8 562.85 C 707.8 562.85 715.6 564.25 715.6 564.25 C 715.6 564.25 731.15 563.25 731.15 563.25 C 731.15 563.25 745.4 559.65 745.4 559.65 C 745.4 559.65 755.75 556 755.75 556 C 755.75 556 763.6 554.65 763.6 554.65 C 763.6 554.65 779.4 555.05 779.4 555.05 C 779.4 555.05 790.15 553.65 790.15 553.65 C 790.15 553.65 802.15 550.85 802.15 550.85 C 802.15 550.85 813.6 548.05 813.6 548.05 C 813.6 548.05 821.8 546.85 821.8 546.85 C 821.8 546.85 838.6 546.25 838.6 546.25 C 838.6 546.25 850.7500000000001 550.05 850.95 550.05 C 851.15 550.05 865.4 554.45 865.4 554.45 C 865.4 554.45 879.95 557.65 879.95 557.65 C 879.95 557.65 895.95 560.45 895.95 560.45 C 895.95 560.45 905.2 561.25 905.6 561.25 C 906 561.25 912.8 563.25 912.8 563.25 C 912.8 563.25 918.8 565.45 918.8 565.45 C 918.8 565.45 926.6 563.25 926.6 563.25 C 926.6 563.25 931.95 557.25 931.95 557.25 C 931.95 557.25 931.95 551.85 931.95 551.85 C 931.95 551.85 931.95 545.85 931.95 545.85 C 931.95 545.85 927.8 540.85 927.8 540.85 C 927.8 540.85 920.15 537.65 920.15 537.65 C 920.15 537.65 915.8 535.45 915.8 535.45 C 915.8 535.45 904.4 534.45 904.4 534.45 C 904.4 534.45 885.8 531.25 885.8 531.25 C 885.8 531.25 871.4 527.65 871.4 527.65 C 871.4 527.65 842.6 518.85 842.6 518.85 C 842.6 518.85 822.6 518.85 822.6 518.85 C 822.6 518.85 815.8 519.85 815.8 519.85 C 815.8 519.85 801.6 523.05 801.6 523.05 C 801.6 523.05 783.8 526.65 783.8 526.65 C 783.8 526.65 765.6 526.65 765.6 526.65 C 765.6 526.65 755.95 528.05 755.95 528.05 C 755.95 528.05 729.6 535.25 729.6 535.25 C 729.6 535.25 723.8 537.05 723.8 537.05 C 723.8 537.05 710.95 536.25 710.95 536.25 C 710.95 536.25 705.6 537.25 705.6 537.25  Z "/>
  <path class="st11" id="path_11" d="M 1008.8 537.25 C 1008.8 537.25 1001.95 535.85 1001.95 535.85 C 1001.95 535.85 997.4 537.25 997.4 537.25 C 997.4 537.25 992.95 540.45 992.95 540.45 C 992.95 540.45 989.8 544.05 989.8 544.05 C 989.8 544.05 988.8 548.05 988.8 548.05 C 988.8 548.05 988.8 553.05 988.8 553.05 C 988.8 553.05 991.95 558.65 991.95 558.65 C 991.95 558.65 997.8 563.05 997.8 563.05 C 997.8 563.05 1004.55 563.55 1004.55 563.55 C 1004.55 563.55 1012.8 563.65 1012.8 563.65 C 1012.8 563.65 1020.6 563.65 1020.6 563.65 C 1020.6 563.65 1029.8 560.85 1029.8 560.85 C 1029.8 560.85 1041.55 558.65 1041.55 558.65 C 1041.55 558.65 1048.8000000000002 556.85 1049.2 556.85 C 1049.6 556.85 1059.4 555.45 1059.4 555.45 C 1059.4 555.45 1081.0000000000002 554.85 1081.4 554.85 C 1081.8 554.85 1084.4 556.85 1084.4 556.85 C 1084.4 556.85 1123.4 556.25 1123.4 556.25 C 1123.4 556.25 1126.55 557.25 1126.55 557.25 C 1126.55 557.25 1142 557.2 1142 557.2 C 1142 557.2 1151.4 558.45 1151.4 558.45 C 1151.4 558.45 1176.4 561.85 1176.4 561.85 C 1176.4 561.85 1218.55 572.65 1218.55 572.65 C 1218.55 572.65 1226.95 578.05 1226.95 578.05 C 1226.95 578.05 1231.2 581.65 1231.2 581.65 C 1231.2 581.65 1237.8 583 1237.8 583 C 1237.8 583 1244.55 580.25 1244.55 580.25 C 1244.55 580.25 1249.55 575.25 1249.55 575.25 C 1249.55 575.25 1249.55 565.25 1249.55 565.25 C 1249.55 565.25 1244.55 558.05 1244.55 558.05 C 1244.55 558.05 1235.95 551.25 1235.95 551.25 C 1235.95 551.25 1230 547.6 1230 548 C 1230 548.4 1215.4 543.45 1215.4 543.45 C 1215.4 543.45 1198.95 539.85 1198.95 539.85 C 1198.95 539.85 1176.8 535.25 1176.8 535.25 C 1176.8 535.25 1152.95 531.65 1152.95 531.65 C 1152.95 531.65 1139.2 529.65 1139.2 529.65 C 1139.2 529.65 1106.4 529.85 1106.4 529.85 C 1106.4 529.85 1049.55 529.45 1049.55 529.45 C 1049.55 529.45 1043.55 529.85 1043.55 529.85 C 1043.55 529.85 1033.55 532.25 1033.55 532.25 C 1033.55 532.25 1020.4 535.85 1020.4 535.85 C 1020.4 535.85 1012.15 536.25 1012.15 536.25 C 1012.15 536.25 1008.8 537.25 1008.8 537.25  Z "/>
  <path class="st12" id="path_12" d="M 625.4 465.75 C 625.4 465.75 624.4 470.25 624.4 470.25 C 624.4 470.25 623.9 483.5 623.9 483.5 C 623.9 483.5 627.1 493.25 627.1 493.25 C 627.1 493.25 635.9 501.25 635.9 501.25 C 635.9 501.25 645.4 509 645.4 509 C 645.4 509 654.6 516 654.6 516 C 654.6 516 664.1 521 664.1 521 C 664.1 521 677.4 524.5 677.4 524.5 C 677.4 524.5 701.4 525 701.9 525 C 702.4 525 718.4 524.5 718.4 524.5 C 718.4 524.5 729.6 522.75 729.6 522.75 C 729.6 522.75 751.6 518.75 751.6 518.75 C 751.6 518.75 767.6 509 767.6 509 C 767.6 509 778.4 500 778.4 500 C 778.4 500 786.9 491 786.9 491 C 786.9 491 793.1 478.25 793.1 478.25 C 793.1 478.25 798.4 466.25 798.4 466.25 C 798.4 466.25 798.4 460.5 798.4 460.5 C 798.4 460.5 801.1 457.75 801.1 457.75 C 801.1 457.75 809.9 461 809.9 461 C 809.9 461 819.4 464.5 819.4 464.5 C 819.4 464.5 842.9 464 842.9 464 C 842.9 464 860.2 461 860.2 461 C 860.2 461 880.9 454.25 880.9 454.25 C 880.9 454.25 895.9 444 895.9 444 C 895.9 444 904.4 434.75 904.4 434.75 C 904.4 434.75 910.1 425 910.1 425 C 910.1 425 916.9 413 916.9 413 C 916.9 413 921.9 399.5 921.9 399.5 C 921.9 399.5 921.2 391.75 921.2 391.75 C 921.2 391.75 927.6 387.75 927.6 387.75 C 927.6 387.75 929.9 383.25 929.9 383.25 C 929.9 383.25 940.6 383.25 940.6 383.25 C 940.6 383.25 949.1 387 949.1 387 C 949.1 387 957.6 394 957.6 394 C 957.6 394 959.9 403.75 959.9 404.25 C 959.9 404.75 961.6 411.25 961.6 411.25 C 961.6 411.25 961.1 432.5 961.1 432.5 C 961.1 432.5 955.2 464 955.2 464 C 955.2 464 942.1 495 942.1 495 C 942.1 495 934.9 500 934.9 500 C 934.9 500 926.9 503.5 926.9 503.5 C 926.9 503.5 921.1 513 921.1 513 C 921.1 513 924.1 524 924.1 524 C 924.1 524 931.4 529.5 931.4 529.5 C 931.4 529.5 943.9 528.5 943.9 528.5 C 943.9 528.5 954.1 523.25 954.1 523.25 C 954.1 523.25 962.1 514.25 962.1 514.25 C 962.1 514.25 966.6 508 966.6 508 C 966.6 508 974.1 503.25 974.1 503.25 C 974.1 503.25 990.1 493 990.1 493 C 990.1 493 994.1 490.25 994.1 490.25 C 994.1 490.25 1016.9 474.25 1016.9 474.25 C 1016.9 474.25 1034.1 457.5 1034.1 457.5 C 1034.1 457.5 1038.9 452.25 1038.9 452.25 C 1038.9 452.25 1043.4 446 1043.4 446 C 1043.4 446 1054.1 431 1054.1 431 C 1054.1 431 1059.4 414.5 1059.4 414.5 C 1059.4 414.5 1061.1 411 1061.1 411 C 1061.1 411 1064.4 414.5 1064.4 414.5 C 1064.4 414.5 1064.9 423.5 1064.9 423.5 C 1064.9 423.5 1068.4 435.25 1068.4 435.5 C 1068.4 435.75 1075.9 458.25 1075.9 458.25 C 1075.9 458.25 1087 474.75 1087 474.75 C 1087 474.75 1102.6 491.25 1102.6 491.25 C 1102.6 491.25 1110.4 497.75 1110.9 497.75 C 1111.4 497.75 1118.4 502.25 1118.4 502.25 C 1118.4 502.25 1130.4 508 1130.9 508 C 1131.4 508 1142.15 510.25 1142.15 510.25 C 1142.15 510.25 1157.9 513.25 1157.9 513.25 C 1157.9 513.25 1168.65 511.5 1168.65 511.5 C 1168.65 511.5 1185.15 507.5 1185.4 507.5 C 1185.65 507.5 1202.4 500.5 1202.4 500.5 C 1202.4 500.5 1216.15 491.5 1216.15 491.5 C 1216.15 491.5 1229.9 482.25 1229.9 482.25 C 1229.9 482.25 1236.65 476.5 1236.65 476.5 C 1236.65 476.5 1241.15 474.25 1241.15 474.25 C 1241.15 474.25 1244.65 480 1244.65 480 C 1244.65 480 1247.4 497.75 1247.4 497.75 C 1247.4 497.75 1255.4 521.5 1255.4 521.5 C 1255.4 521.5 1264.4 538 1264.4 538 C 1264.4 538 1275.4 552.75 1275.4 553 C 1275.4 553.25 1287.4 564.5 1287.4 564.5 C 1287.4 564.5 1300.4 572.75 1300.4 572.75 C 1300.4 572.75 1314.15 575.75 1314.15 575.75 C 1314.15 575.75 1331.5 575.75 1331.25 575.75 C 1331 575.75 1347.15 572.25 1347.65 572.25 C 1348.15 572.25 1363.15 566.5 1363.15 566.5 C 1363.15 566.5 1382.15 556.75 1382.15 556.75 C 1382.15 556.75 1395.4 545.25 1395.4 545.25 C 1395.4 545.25 1405.65 529.25 1405.65 529.25 C 1405.65 529.25 1403.9 519 1403.9 519 C 1403.9 519 1397.65 513.25 1397.65 513.25 C 1397.65 513.25 1390.4 513.25 1390.4 513.25 C 1390.4 513.25 1384.15 515.5 1384.15 515.5 C 1384.15 515.5 1378.4 523.5 1378.4 523.5 C 1378.4 523.5 1366.4 535 1366.4 535 C 1366.4 535 1348.65 543.5 1348.65 543.5 C 1348.65 543.5 1330.15 549.75 1329.4 549.75 C 1328.65 549.75 1314.9 548.5 1314.9 548.5 C 1314.9 548.5 1302.9 541.75 1302.4 541.75 C 1301.9 541.75 1289.15 528.75 1289.15 528.75 C 1289.15 528.75 1278.4 507 1278.4 507 C 1278.4 507 1272.15 486.5 1272.15 486.5 C 1272.15 486.5 1269.9 475.75 1269.9 475.75 C 1269.9 475.75 1266.4 463.75 1266.4 463.75 C 1266.4 463.75 1259.65 454.75 1259.65 454.75 C 1259.65 454.75 1248.9 447.25 1248.9 447.25 C 1248.9 447.25 1236.15 447.25 1236.15 447.25 C 1236.15 447.25 1224.9 450.75 1224.9 450.75 C 1224.9 450.75 1212.9 461 1212.9 461 C 1212.9 461 1199.15 471.75 1199.15 471.75 C 1199.15 471.75 1184.9 478.5 1184.9 478.5 C 1184.9 478.5 1164.4 484.25 1164.4 484.25 C 1164.4 484.25 1142.15 482.5 1142.15 482.5 C 1142.15 482.5 1124.9 475.75 1124.9 475.75 C 1124.9 475.75 1110.15 463.25 1110.15 463.25 C 1110.15 463.25 1100.4 446.25 1100.4 446.25 C 1100.4 446.25 1093.15 428 1093.15 428 C 1093.15 428 1089.15 404.5 1089.15 404.5 C 1089.15 404.5 1085.65 388.75 1085.65 388.75 C 1085.65 388.75 1081.15 371.75 1081.15 371.75 C 1081.15 371.75 1072.65 357 1072.65 357 C 1072.65 357 1067.4 351.25 1067.4 351.25 C 1067.4 351.25 1063.4 340.5 1063.4 340.5 C 1063.4 340.5 1059.9 330.75 1059.9 330.75 C 1059.9 330.75 1053.15 326.75 1053.15 326.75 C 1053.15 326.75 1045.9 326.25 1045.9 326.25 C 1045.9 326.25 1036.15 332.5 1036.15 332.5 C 1036.15 332.5 1030.9 344 1030.9 344 C 1030.9 344 1032.65 356.5 1032.65 356.5 C 1032.65 356.5 1036.15 370.75 1036.15 370.75 C 1036.15 370.75 1034.9 399.75 1034.9 399.75 C 1034.9 399.75 1029.15 418.75 1029.15 418.75 C 1029.15 418.75 1022.9 430.25 1022.9 430.25 C 1022.9 430.25 1012.15 441 1012.15 441 C 1012.15 441 1002.4 451.75 1002.4 451.75 C 1002.4 451.75 984.15 465.5 984.15 465.5 C 984.15 465.5 981.9 462.75 981.9 462.75 C 981.9 462.75 988.65 436.5 988.65 436.5 C 988.65 436.5 989.65 409 989.65 409 C 989.65 409 986.4 398.25 986.4 398.25 C 986.4 398.25 980.65 383 980.65 383 C 980.65 383 974.4 372.75 974.4 372.75 C 974.4 372.75 964.15 365.75 964.15 365.75 C 964.15 365.75 952.9 359 952.9 359 C 952.9 359 939.15 354.5 939.15 354.5 C 939.15 354.5 921.9 355.5 921.9 355.5 C 921.9 355.5 914.65 351 914.65 351 C 914.65 351 902.75 347.5 902.75 347.5 C 902.75 347.5 895.15 350.5 895.15 350.5 C 895.15 350.5 888.9 357.25 888.9 357.25 C 888.9 357.25 883.65 363 883.65 363 C 883.65 363 881.4 371 881.4 371 C 881.4 371 883.15 379 883.15 379 C 883.15 379 887.65 383.5 887.65 383.5 C 887.65 383.5 894.65 387 894.65 387 C 894.65 387 895.15 391.5 895.15 391.5 C 895.15 391.5 892.15 402.25 892.15 402.25 C 892.15 402.25 887.15 411.25 887.15 411.25 C 887.15 411.25 879.9 421.25 879.9 421.25 C 879.9 421.25 871.4 428.5 871.4 428.5 C 871.4 428.5 858.4 433.75 858.4 433.75 C 858.4 433.75 843.65 436.5 843.65 436.5 C 843.65 436.5 821.65 437 820.9 436.5 C 820.15 436 809.4 433 809.4 433 C 809.4 433 799.15 426.25 799.15 426.25 C 799.15 426.25 794.65 416.5 794.65 416.5 C 794.65 416.5 790.15 411.5 790.15 411.5 C 790.15 411.5 783.15 409.25 783.15 409.25 C 783.15 409.25 775.9 412.5 775.9 412.5 C 775.9 412.5 771.4 419.5 771.4 419.5 C 771.4 419.5 769.65 425 769.65 425 C 769.65 425 773.15 436.25 773.15 437 C 773.15 437.75 773.65 451.25 773.65 451.25 C 773.65 451.25 770.9 463.25 770.9 463.25 C 770.9 463.25 763.4 475.75 763.4 475.75 C 763.4 475.75 756.65 483.25 756.65 483.25 C 756.65 483.25 745.15 491.25 745.15 491.25 C 745.15 491.25 733.4 494 733.4 494 C 733.4 494 720.15 497.25 719.65 497.5 C 719.15 497.75 705.25 498 705.25 498 C 705.25 498 683.65 498 683.65 498 C 683.65 498 671.15 495.25 671.15 495.25 C 671.15 495.25 662.15 488.25 662.15 488.25 C 662.15 488.25 651.9 479.75 651.9 479.75 C 651.9 479.75 651.9 467.75 651.9 467.75 C 651.9 467.75 646.9 461.5 646.9 461.5 C 646.9 461.5 639.9 457.5 639.9 457.5 C 639.9 457.5 634.15 459.25 634.15 459.25 C 634.15 459.25 631.15 459.25 630.9 459.75 C 630.65 460.25 625.4 465.75 625.4 465.75  Z "/>
  <path class="st13" id="path_13" d="M 605.65 444.75 C 605.15 444.75 598.4 444.75 598.4 444.75 C 598.4 444.75 590.9 440.25 590.9 440.25 C 590.9 440.25 585.9 430.5 585.9 430.5 C 585.9 430.5 584.65 420.75 584.65 420.75 C 584.65 420.75 584.65 385 584.65 385 C 584.65 385 585.4 374 585.4 374 C 585.4 374 588.5 359.25 588.5 359.25 C 588.5 359.25 593.9 339.75 593.9 339.75 C 593.9 339.75 599.65 326.75 599.65 326.75 C 599.65 326.75 608.15 307.25 608.15 307.25 C 608.15 307.25 632.15 276.5 632.15 276.5 C 632.15 276.5 641.9 268 641.9 268 C 641.9 268 653.4 257.75 653.9 257.75 C 654.4 257.75 665.9 248.5 666.4 248.5 C 666.9 248.5 682.65 240.75 682.65 240.75 C 682.65 240.75 701.4 234.5 701.4 234.5 C 701.4 234.5 716.9 231 716.9 231 C 716.9 231 732.4 230.5 732.4 230.5 C 732.4 230.5 750.4 230.5 750.4 230.5 C 750.4 230.5 765.65 234.5 765.65 234.5 C 765.65 234.5 779.15 239.75 779.15 239.75 C 779.15 239.75 791.65 246.75 791.65 247.25 C 791.65 247.75 795.65 252.75 795.65 252.75 C 795.65 252.75 799.65 254.5 799.65 254.5 C 799.65 254.5 802.4 249.5 802.4 249.5 C 802.4 249.5 805.15 243.25 805.15 243.25 C 805.15 243.25 813.4 228.75 813.4 228.75 C 813.4 228.75 822.9 214.5 823.15 214.5 C 823.4 214.5 832.4 204.25 832.4 204.25 C 832.4 204.25 845.4 192.25 845.4 192.25 C 845.4 192.25 869.15 176.75 869.15 176.75 C 869.15 176.75 893.4 167.25 893.4 167.25 C 893.4 167.25 922.4 159.75 922.4 159.75 C 922.4 159.75 944.65 155.75 944.65 155.75 C 944.65 155.75 956.15 154.5 956.15 154.5 C 956.15 154.5 960.65 154 960.65 154 C 960.65 154 995.65 155 995.65 155 C 995.65 155 1012.15 158.5 1012.15 158.5 C 1012.15 158.5 1032.4 164.75 1032.4 164.75 C 1032.4 164.75 1045.4 170.5 1045.4 170.5 C 1045.4 170.5 1062.15 178.5 1062.15 178.5 C 1062.15 178.5 1075.9 187.25 1075.9 187.25 C 1075.9 187.25 1090.15 199.75 1090.15 199.75 C 1090.15 199.75 1097.65 208.75 1097.65 208.75 C 1097.65 208.75 1104.4 223 1104.4 223 C 1104.4 223 1106.65 228.25 1106.65 228.25 C 1106.65 228.25 1108.4 230.5 1108.4 230.5 C 1108.4 230.5 1112.4 228.75 1112.4 228.75 C 1112.4 228.75 1126.65 217.25 1126.65 217.25 C 1126.65 217.25 1151.65 204.25 1151.65 204.25 C 1151.65 204.25 1171.9 195.75 1171.9 195.75 C 1171.9 195.75 1202.9 190.75 1202.9 190.75 C 1202.9 190.75 1228.15 189.5 1228.15 189.5 C 1228.15 189.5 1241.15 192.5 1241.15 192.5 C 1241.15 192.5 1256.75 197.25 1256.75 197.25 C 1256.75 197.25 1275.65 205.25 1275.65 205.25 C 1275.65 205.25 1291.15 214.25 1291.15 214.25 C 1291.15 214.25 1303.15 225.75 1303.15 225.75 C 1303.15 225.75 1315.15 243.25 1315.15 243.25 C 1315.15 243.25 1317.9 255.75 1317.9 255.75 C 1317.9 255.75 1320.15 272.25 1320.15 272.25 C 1320.15 272.25 1320.15 296.75 1320.15 296.75 C 1320.15 296.75 1315.65 317.25 1315.65 317.25 C 1315.65 317.25 1315.15 320.25 1315.15 320.25 C 1315.15 320.25 1319.15 321.75 1319.15 321.75 C 1319.15 321.75 1329.9 320.75 1329.9 320.75 C 1329.9 320.75 1361.65 316.25 1361.65 316.25 C 1361.65 316.25 1375.5 315.75 1375.5 315.75 C 1375.5 315.75 1406.9 314 1406.9 314 C 1406.9 314 1415.5 316 1415.5 316 C 1415.5 316 1428.4 319.25 1428.4 319.25 C 1428.4 319.25 1440.4 322.75 1440.4 322.75 C 1440.4 322.75 1450.15 327.75 1450.15 327.75 C 1450.15 327.75 1458.65 332.5 1458.65 332.5 C 1458.65 332.5 1465.15 338.5 1465.4 338.75 C 1465.65 339 1478.9 351.75 1478.9 351.75 C 1478.9 351.75 1492.15 367 1492.15 367 C 1492.15 367 1503.4 387.5 1503.4 387.5 C 1503.4 387.5 1506.4 398.75 1506.4 398.75 C 1506.4 398.75 1508.65 433.2 1508.65 433.2 C 1508.65 433.2 1507 442.25 1507 442.25 C 1507 442.25 1500.4 465.2 1500.15 465.2 C 1499.9 465.2 1488.9 488.7 1488.9 488.7 C 1488.9 488.7 1475.65 506.7 1475.65 506.7 C 1475.65 506.7 1460.9 524 1460.9 524 C 1460.9 524 1441.65 540 1441.65 540 C 1441.65 540 1434.5 544.25 1434.5 544.25 C 1434.5 544.25 1423.65 546 1423.65 546 C 1423.65 546 1417.4 543 1417.4 543 C 1417.4 543 1412.9 536.7 1412.9 536.7 C 1412.9 536.7 1412.15 528.7 1412.15 528.7 C 1412.15 528.7 1414.4 523.7 1414.4 523.7 C 1414.4 523.7 1422.4 518.7 1422.4 518.7 C 1422.4 518.7 1427.15 517.5 1427.15 517.5 C 1427.15 517.5 1436.15 510.2 1436.15 510.2 C 1436.15 510.2 1446.9 500 1446.9 500 C 1446.9 500 1464.65 475 1464.65 475 C 1464.65 475 1473.4 457 1473.4 457 C 1473.4 457 1480.65 441.2 1480.65 441.2 C 1480.65 441.2 1481.9 429.7 1481.9 429.7 C 1481.9 429.7 1481.9 416.7 1481.9 416.7 C 1481.9 416.7 1478.9 403.5 1478.9 403.5 C 1478.9 403.5 1478.5 396.75 1478.5 396.75 C 1478.5 396.75 1472.65 387 1472.65 387 C 1472.65 387 1464.15 374 1464.15 374 C 1464.15 374 1456.15 366 1456.15 366 C 1456.15 366 1443.15 354.25 1443.15 354.25 C 1443.15 354.25 1433.4 348.75 1433.4 348.75 C 1433.4 348.75 1421.65 344.75 1421.65 344.75 C 1421.65 344.75 1407.9 341.75 1407.9 341.75 C 1407.9 341.75 1377.15 341.75 1377.15 341.75 C 1377.15 341.75 1366 341.25 1366 341.25 C 1366 341.25 1327.15 347.5 1327.15 347.5 C 1327.15 347.5 1312.9 348 1312.9 348 C 1312.9 348 1301.4 345.75 1301.4 345.75 C 1301.4 345.75 1291.65 338.75 1291.65 338.75 C 1291.65 338.75 1287.65 328.75 1287.65 328.75 C 1287.65 328.75 1288.4 318.5 1288.4 318.5 C 1288.4 318.5 1291.15 304.25 1291.15 304.25 C 1291.15 304.25 1293.4 286 1293.4 286 C 1293.4 286 1293.4 269.25 1293.4 269.25 C 1293.4 269.25 1290.65 257.25 1290.65 257.25 C 1290.65 257.25 1285.4 245.5 1285.4 245.5 C 1285.4 245.5 1274.15 235.25 1274.15 235.25 C 1274.15 235.25 1258.65 227.25 1258.65 227.25 C 1258.65 227.25 1242.15 221.5 1242.15 221.5 C 1242.15 221.5 1228.4 217.5 1228.4 217.5 C 1228.4 217.5 1199.9 217 1199.9 217 C 1199.9 217 1192.65 219.25 1192.65 219.25 C 1192.65 219.25 1180.65 221 1180.65 221 C 1180.65 221 1170.9 225 1170.9 225 C 1170.9 225 1158.4 230 1158.4 230 C 1158.4 230 1147.65 235.75 1147.65 235.75 C 1147.65 235.75 1136.65 243 1136.65 243 C 1136.65 243 1121.9 254.5 1121.9 254.5 C 1121.9 254.5 1113.5 260.75 1113.5 260.75 C 1113.5 260.75 1103.15 261.25 1103.15 261.25 C 1103.15 261.25 1092.9 255.75 1092.9 255.75 C 1092.9 255.75 1085.4 247.75 1085.4 247.75 C 1085.4 247.75 1080.4 235.75 1080.4 235.75 C 1080.4 235.75 1072.9 221.5 1072.9 221.5 C 1072.9 221.5 1065.65 214.75 1065.65 214.75 C 1065.65 214.75 1060.4 209 1060.4 209 C 1060.4 209 1047.4 201.75 1047.4 201.75 C 1047.4 201.75 1029.9 192.5 1029.9 192.5 C 1029.9 192.5 988.9 181.75 988.9 181.75 C 988.9 181.75 961.4 180.75 961.4 180.75 C 961.4 180.75 946.65 183 946.65 183 C 946.65 183 929.15 185.75 929.15 185.75 C 929.15 185.75 915.4 188.75 915.4 188.75 C 915.4 188.75 896.15 194.25 896.15 194.25 C 896.15 194.25 877.9 203.5 877.9 203.5 C 877.9 203.5 860.9 214.75 860.9 214.75 C 860.9 214.75 845.9 228.5 845.9 228.5 C 845.9 228.5 832.9 245.5 832.9 245.5 C 832.9 245.5 824.5 266.75 824.5 266.75 C 824.5 266.75 816.4 283.25 816.4 283.25 C 816.4 283.25 811.9 287.75 811.9 287.75 C 811.9 287.75 803.9 289.5 803.9 289.5 C 803.9 289.5 790.9 283.75 790.9 283.75 C 790.9 283.75 780.65 273.5 780.65 273.5 C 780.65 273.5 769.15 266.75 769.15 266.75 C 769.15 266.75 755.65 259.25 755.65 259.25 C 755.65 259.25 740.15 255.25 740.15 255.25 C 740.15 255.25 723.15 258 723.15 258 C 723.15 258 706.15 261.5 706.15 261.5 C 706.15 261.5 692.9 266.75 692.9 266.75 C 692.9 266.75 676.4 276.25 676.4 276.25 C 676.4 276.25 660.9 287 660.9 287 C 660.9 287 648.9 297.75 648.9 297.75 C 648.9 297.75 638.65 311.5 638.65 311.5 C 638.65 311.5 626.65 328.5 626.65 328.5 C 626.65 328.5 619.15 344 619.15 344 C 619.15 344 614.15 365.5 614.15 365.5 C 614.15 365.5 612.4 383.25 612.4 383.25 C 612.4 383.25 610.15 407.5 610.15 407.5 C 610.15 407.5 611.4 419.2 611.4 419.2 C 611.4 419.2 619.9 420.5 619.9 420.5 C 619.9 420.5 623.15 426.2 623.15 426.2 C 623.15 426.2 625.65 432.5 625.65 432.5 C 625.65 432.5 624.4 438.2 624.4 438.2 C 624.4 438.2 620.4 443.7 620.4 443.7 C 620.4 443.7 612.4 445.5 612.4 445.5 C 612.4 445.5 606.15 444.75 605.65 444.75  Z "/>
  <path class="st14" id="path_14" d="M 680.1 298.7 C 680.1 298.7 675.1 308 675.1 308 C 675.1 308 669.4 322.5 669.4 322.5 C 669.4 322.5 665.4 336.7 665.4 336.7 C 665.4 336.7 660.9 355 660.9 355 C 660.9 355 661.4 368 661.4 368 C 661.4 368 660.9 377 660.9 377 C 660.9 377 663.1 386.7 663.1 386.7 C 663.1 386.7 667.1 391.7 667.1 391.7 C 667.1 391.7 671.6 395.2 671.6 395.2 C 671.6 395.2 669.9 400.5 669.9 400.5 C 669.9 400.5 668.1 406.7 668.1 406.7 C 668.1 406.7 668.1 413.45 668.1 413.45 C 668.1 413.45 668.1 419.7 668.1 419.7 C 668.1 419.7 671.1999999999999 423.7 671.4 423.7 C 671.6 423.7 678.4 428.2 678.4 428.2 C 678.4 428.2 684.6 428.2 684.6 428.2 C 684.6 428.2 690.4 428.2 690.4 428.2 C 690.4 428.2 694.4 428.2 694.4 428.2 C 694.4 428.2 696.6 431.2 696.6 431.7 C 696.6 432.2 699.6 437.95 699.6 437.95 C 699.6 437.95 707.4 441.95 707.4 441.95 C 707.4 441.95 718.9 438.95 718.9 438.95 C 718.9 438.95 729.1 431.7 729.1 431.7 C 729.1 431.7 751.9 409.5 751.9 409.5 C 751.9 409.5 807.9 344.5 807.9 344.5 C 807.9 344.5 810.6 346.2 810.6 346.2 C 810.6 346.2 771.4 410.5 771.4 410.5 C 771.4 410.5 761.6 428.2 761.6 428.2 C 761.6 428.2 757.1 437.7 757.1 437.7 C 757.1 437.7 752.9000000000001 446.5 752.6 446.95 C 752.3 447.4 752.6 456.45 752.6 456.45 C 752.6 456.45 757.6 462.2 757.6 462.2 C 757.6 462.2 766.6 467.45 766.6 467.45 C 766.6 467.45 772.9 461.95 772.9 461.95 C 772.9 461.95 773.7 442.5 773.7 442.5 C 773.7 442.5 769.2 424.2 769.2 424.2 C 769.2 424.2 776 412.2 776 412.2 C 776 412.2 785 410 785 410 C 785 410 795.2 416.7 795.2 416.7 C 795.2 416.7 798.7 426 798.7 426 C 798.7 426 803.7 428.7 803.7 428.7 C 803.7 428.7 809.6 425.5 809.6 424.95 C 809.6 424.4 824.9 403 824.9 403 C 824.9 403 833.1 392.7 833.1 392.7 C 833.1 392.7 837.6 396.7 837.6 396.7 C 837.6 396.7 842.1 401.2 842.1 401.2 C 842.1 401.2 850.1 401.2 850.1 401.2 C 850.1 401.2 859.4 396.7 859.4 396.7 C 859.4 396.7 870.4 383.7 870.4 383.7 C 870.4 383.7 878.4 376.8 878.4 376.5 C 878.4 376.2 882 370 882 370 C 882 370 883.7 362.5 884.2 362.5 C 884.7 362.5 894.7 352.2 894.7 352.2 C 894.7 352.2 900.1 346.5 900.1 346.5 C 900.1 346.5 917.9 326.7 917.9 326.7 C 917.9 326.7 920.1 327.2 920.1 327.2 C 920.1 327.2 907.1 345.5 907.1 345.5 C 907.1 345.5 907.1 350 907.1 350 C 907.1 350 916.7 352.2 916.7 352.2 C 916.7 352.2 923.7 355.7 923.7 355.7 C 923.7 355.7 939.5 354 939.5 354 C 939.5 354 955.5 360.7 955.5 360.7 C 955.5 360.7 990.6 321.5 990.6 321.5 C 990.6 321.5 996.1 315.7 996.1 315.7 C 996.1 315.7 998.6 315.2 998.6 315.2 C 998.6 315.2 995.6 321.5 995.1 321.5 C 994.6 321.5 990.6 328.7 990.6 328.7 C 990.6 328.7 984.4 339.5 984.4 339.7 C 984.4 339.9 981 347.5 981 347.5 C 981 347.5 980.9 358.5 980.9 358.5 C 980.9 358.5 987.9 365.2 987.9 365.2 C 987.9 365.2 997.4 368 997.4 368 C 997.4 368 1006.4000000000001 363.5 1006.6 363.5 C 1006.8 363.5 1018.1 355.5 1018.1 355.5 C 1018.1 355.5 1029.6 346.2 1029.6 346.2 C 1029.6 346.2 1032.5 338.7 1032.5 338.7 C 1032.5 338.7 1036.7 331.5 1036.7 331.5 C 1036.7 331.5 1046.5 325.7 1046.5 325.7 C 1046.5 325.7 1051.4 324 1051.4 324 C 1051.4 324 1063.9 311.5 1063.9 311.5 C 1063.9 311.5 1067.4 308 1067.4 308 C 1067.4 308 1068.6 312 1068.6 312 C 1068.6 312 1060.6 321.7 1060.6 321.7 C 1060.6 321.7 1057 326 1057 326 C 1057 326 1060 330 1060 330 C 1060 330 1062.7 339.2 1062.7 339.2 C 1062.7 339.2 1067.1 347 1067.1 347 C 1067.1 347 1069.5 353.2 1069.5 353.2 C 1069.5 353.2 1078.1 343.7 1078.1 343.7 C 1078.1 343.7 1091.1 323.7 1091.1 323.7 C 1091.1 323.7 1100.4 310 1100.4 310 C 1100.4 310 1110.6 293.5 1110.6 293.5 C 1110.6 293.5 1120.4 276.5 1120.4 276.5 C 1120.4 276.5 1126.6 261 1126.6 261.7 C 1126.6 262.4 1124.9 255 1124.9 255 C 1124.9 255 1115.2 259 1115.2 259 C 1115.2 259 1098.2 259.5 1098.2 259.5 C 1098.2 259.5 1089.7 251.5 1089.7 251.5 C 1089.7 251.5 1071.9 267.5 1071.9 267.5 C 1071.9 267.5 1042.9 297.2 1042.9 297.2 C 1042.9 297.2 1040.3999999999999 292.5 1041.1 292.5 C 1041.8 292.5 1053.1 277.2 1053.1 277.2 C 1053.1 277.2 1063.9 260.7 1063.9 260.7 C 1063.9 260.7 1073.1 243.5 1073.1 243.5 C 1073.1 243.5 1076 231.49999999999997 1076 231.7 C 1076 231.9 1069.6 224.2 1069.6 224.2 C 1069.6 224.2 1063.4 221.5 1063.4 221.5 C 1063.4 221.5 1055.4 222.5 1055.4 222.5 C 1055.4 222.5 1045.9 226.5 1045.9 226.5 C 1045.9 226.5 1033.4 239 1033.4 239 C 1033.4 239 1008.1 261.7 1008.1 261.7 C 1008.1 261.7 994.4 279 993.9 279 C 993.4 279 983.1 289.2 983.1 289.2 C 983.1 289.2 970.1999999999999 304 969.9 304.2 C 969.6 304.4 962.6 310.7 962.6 310.7 C 962.6 310.7 965.6 305 965.6 305 C 965.6 305 974.6 291 974.6 291 C 974.6 291 984.9 276 984.9 276 C 984.9 276 996.4 258.5 996.4 258.5 C 996.4 258.5 1008.9 239 1008.9 239 C 1008.9 239 1015.1 222.5 1015.1 222.5 C 1015.1 222.5 1011.1 212.2 1011.1 212.2 C 1011.1 212.2 1004.4 207.7 1004.4 207.7 C 1004.4 207.7 996.4 207.7 996.4 207.7 C 996.4 207.7 983.4 216 983.4 216 C 983.4 216 961.6 238.7 961.6 238.7 C 961.6 238.7 958.4 239.2 958.4 239.2 C 958.4 239.2 967.4 224.5 967.4 224.5 C 967.4 224.5 964.1 211.2 964.1 211.2 C 964.1 211.2 957.9 208.5 957.9 208.5 C 957.9 208.5 949.4 208 949.4 208 C 949.4 208 943.7 210.7 943.7 210.7 C 943.7 210.7 919.4 238.7 919.4 238.7 C 919.4 238.7 874.4 295.2 874.4 295.2 C 874.4 295.2 869.6 301 869.6 301 C 869.6 301 868.6 297 868.6 297 C 868.6 297 880.6 278.2 880.6 278.2 C 880.6 278.2 887.4 262.7 887.4 262.7 C 887.4 262.7 885.1 247.5 885.1 247.5 C 885.1 247.5 878.1 244 878.1 244 C 878.1 244 871.9 241.7 871.9 241.7 C 871.9 241.7 864.6 244.5 864.6 244.5 C 864.6 244.5 852.1 254.7 852.1 254.7 C 852.1 254.7 834.4 273.5 834.4 273.5 C 834.4 273.5 822.4 286.7 822.4 286.7 C 822.4 286.7 786.4 328.7 786.4 328.7 C 786.4 328.7 785.4 325.5 785.4 325.5 C 785.4 325.5 794.4 311.7 794.4 311.7 C 794.4 311.7 796.1 304.5 796.1 304.5 C 796.1 304.5 793.9 295.7 793.9 295.7 C 793.9 295.7 787.1 290.7 787.1 290.7 C 787.1 290.7 779.1 289.5 779.1 289.5 C 779.1 289.5 767.5 298.75 767.6 298.7 C 767.7 298.65 713.7 371.2 713.7 371.2 C 713.7 371.2 712.4 370 712.4 370 C 712.4 370 715.9 362.7 715.9 362.7 C 715.9 362.7 714.1 354.7 714.1 354.7 C 714.1 354.7 711.9 350.2 711.9 350.2 C 711.9 350.2 717.6 339.2 717.6 339.2 C 717.6 339.2 727.4 326.5 727.4 325.7 C 727.4 324.9 732.9 312 732.9 312 C 732.9 312 734.6 301.7 734.6 301.7 C 734.6 301.7 730.1 295.5 730.1 295.5 C 730.1 295.5 723.9 292 723.9 292 C 723.9 292 720 292 720 292 C 720 292 710.1 294.2 710.1 294.2 C 710.1 294.2 705.1 299.5 705.1 299.5 C 705.1 299.5 702.9 294.7 702.9 294.7 C 702.9 294.7 697.4000000000001 292.5 696.6 292.5 C 695.8 292.5 693.6 290.7 693.1 290.7 C 692.6 290.7 685.6 293.7 685.6 293.7 C 685.6 293.7 680.1 298.7 680.1 298.7  Z "/>
  <path class="st15" id="path_15" d="M 1032.65 363.5 C 1032.65 363.5 1026.9 373 1026.9 373 C 1026.9 373 1021.65 384.5 1021.65 384.5 C 1021.65 384.5 1021.15 396.2 1021.15 396.2 C 1021.15 396.2 1024.4 403 1024.4 403 C 1024.4 403 1028.9 406.5 1028.9 406.5 C 1028.9 406.5 1032.5 406.5 1032.5 406.5 C 1032.5 406.5 1036.65 387.7 1036.65 387.7 C 1036.65 387.7 1037.15 374.2 1037.15 374.2 C 1037.15 374.2 1032.65 363.5 1032.65 363.5  Z "/>
  <path class="st16" id="path_16" d="M 1073.15 352.25 C 1073.15 352.25 1082.9 342.75 1082.9 342.75 C 1082.9 342.75 1093.65 330.75 1093.65 330.75 C 1093.65 330.75 1097.15 329.5 1097.15 329.5 C 1097.15 329.5 1124.65 301 1124.65 301 C 1124.65 301 1128.4 299.5 1128.4 299.5 C 1128.4 299.5 1138.15 288.5 1138.15 288.5 C 1138.15 288.5 1139.9 288 1139.9 288 C 1139.9 288 1147.9 280.5 1147.9 280.5 C 1147.9 280.5 1155.9 275.25 1155.9 275 C 1155.9 274.75 1163.9 270.25 1163.9 270.25 C 1163.9 270.25 1170.15 267.5 1170.15 267.5 C 1170.15 267.5 1177.4 266.5 1177.4 266.5 C 1177.4 266.5 1184.4 268 1184.4 268 C 1184.4 268 1188.9 271 1188.9 271 C 1188.9 271 1192.15 276.5 1192.15 276.5 C 1192.15 276.5 1193.9 286.5 1193.9 286.75 C 1193.9 287 1191.65 298.25 1191.65 298.25 C 1191.65 298.25 1185.4 311.25 1185.4 311.25 C 1185.4 311.25 1179.65 325 1179.65 325 C 1179.65 325 1172.9 335.75 1172.9 335.75 C 1172.9 335.75 1170.15 341.5 1170.15 341.5 C 1170.15 341.5 1173.4 340.25 1173.4 340.25 C 1173.4 340.25 1183.15 329.5 1183.15 329.5 C 1183.15 329.5 1195.9 316.75 1195.9 316.75 C 1195.9 316.75 1203.5 309.75 1203.75 309.75 C 1204 309.75 1211.15 303.25 1211.4 303.25 C 1211.65 303.25 1219.4 299.25 1219.4 299.25 C 1219.4 299.25 1225.15 297.75 1225.4 297.75 C 1225.65 297.75 1232.65 300 1232.65 300 C 1232.65 300 1238.25 302.25 1238.25 302.25 C 1238.25 302.25 1240.65 309 1240.65 309 C 1240.65 309 1241.4 315.5 1241.4 315.5 C 1241.4 315.5 1239.65 324.25 1239.65 324.25 C 1239.65 324.25 1235.15 337.25 1235.15 337.25 C 1235.15 337.25 1229.4 347.5 1229.4 347.5 C 1229.4 347.5 1220.9 361.75 1220.9 361.75 C 1220.9 361.75 1220.4 368.5 1220.4 368.5 C 1220.4 368.5 1223.15 366.25 1223.15 366.25 C 1223.15 366.25 1232.4 359 1232.4 359 C 1232.4 359 1244.9 349.25 1244.9 349.25 C 1244.9 349.25 1254.65 344.75 1254.65 344.75 C 1254.65 344.75 1264.4 344.75 1264.4 344.75 C 1264.4 344.75 1268.9 347.5 1269.15 347.5 C 1269.4 347.5 1274.9 351.75 1274.9 352 C 1274.9 352.25 1278.4 360 1278.4 360 C 1278.4 360 1278.9 369 1278.9 369 C 1278.9 369 1276.15 382.75 1276.15 382.75 C 1276.15 382.75 1272.65 397.5 1272.65 397.5 C 1272.65 397.5 1267.65 407.25 1267.65 407.25 C 1267.65 407.25 1267.65 411.25 1267.65 411.25 C 1267.65 411.25 1274.9 407.25 1274.9 407.25 C 1274.9 407.25 1281.15 398.75 1281.15 398.75 C 1281.15 398.75 1308.15 371.5 1308.15 371.5 C 1308.15 371.5 1318.9 361.75 1318.9 361.75 C 1318.9 361.75 1328 356.5 1328 356.5 C 1328 356.5 1334.9 353.25 1334.9 353.25 C 1334.9 353.25 1342.9 355 1342.9 355 C 1342.9 355 1348.65 357.25 1348.65 357.25 C 1348.65 357.25 1353.15 364.25 1353.15 364.5 C 1353.15 364.75 1353.65 374.25 1353.65 374.25 C 1353.65 374.25 1352.4 384 1351.9 384 C 1351.4 384 1346.15 396.5 1346.15 396.5 C 1346.15 396.5 1338.4 410.75 1338.4 411.25 C 1338.4 411.75 1337.5 415.25 1337.5 415.25 C 1337.5 415.25 1341.15 414 1341.15 413.75 C 1341.15 413.5 1349.65 407.25 1349.65 407.25 C 1349.65 407.25 1357.65 397.5 1357.65 397.5 C 1357.65 397.5 1372.4 385.5 1372.4 385.5 C 1372.4 385.5 1383.4 379.75 1383.4 379.75 C 1383.4 379.75 1395.9 376.5 1395.9 376.5 C 1395.9 376.5 1403.15 378.75 1403.15 378.75 C 1403.15 378.75 1411.65 382.75 1411.65 382.75 C 1411.65 382.75 1414.65 390 1414.65 390 C 1414.65 390 1416.9 401 1416.9 401 C 1416.9 401 1414.65 412.75 1414.65 412.75 C 1414.65 412.75 1413.9 418.5 1413.9 418.5 C 1413.9 418.5 1417.4 417.5 1417.4 417.5 C 1417.4 417.5 1427.4 405.75 1427.65 405.5 C 1427.9 405.25 1441.4 392.75 1441.4 392.75 C 1441.4 392.75 1450.9 386 1451.15 386 C 1451.4 386 1459.9 385.25 1459.9 385.25 C 1459.9 385.25 1464.65 386.25 1464.65 386.25 C 1464.65 386.25 1469.15 391.5 1469.15 391.5 C 1469.15 391.5 1471.9 398.25 1471.9 398.25 C 1471.9 398.25 1469.65 405.75 1469.65 405.75 C 1469.65 405.75 1465.65 417.5 1465.65 417.5 C 1465.65 417.5 1458.65 432.25 1458.65 432.25 C 1458.65 432.25 1438.15 463.75 1438.15 463.75 C 1438.15 463.75 1434.9 474 1434.9 474 C 1434.9 474 1428.65 486.5 1428.65 486.5 C 1428.65 486.5 1420.65 495.75 1420.65 495.75 C 1420.65 495.75 1413.65 498 1413.65 498 C 1413.65 498 1407.4 505.25 1407.4 505.25 C 1407.4 505.25 1402.9 512.75 1402.9 512.75 C 1402.9 512.75 1399.5 515.5 1399.5 515.5 C 1399.5 515.5 1393.75 512.75 1393.75 512.75 C 1393.75 512.75 1386.25 515.5 1386.25 515.5 C 1386.25 515.5 1378.75 523 1378.75 523.5 C 1378.75 524 1374.25 527 1373.75 527 C 1373.25 527 1369.4 522.5 1369.4 522.5 C 1369.4 522.5 1369.4 515 1369.4 515 C 1369.4 515 1373.9 504.25 1373.9 504.25 C 1373.9 504.25 1380.15 493.75 1380.15 493.75 C 1380.15 493.75 1389.4 483 1389.4 483 C 1389.4 483 1396.65 475.5 1396.65 475.5 C 1396.65 475.5 1399.15 469.25 1399.15 469.25 C 1399.15 469.25 1393.65 474 1393.4 474 C 1393.15 474 1384.15 480.75 1384.15 480.75 C 1384.15 480.75 1374.65 482.25 1374.65 481.75 C 1374.65 481.25 1366.15 478.5 1366.15 478.5 C 1366.15 478.5 1359.9 472.25 1359.9 472.25 C 1359.9 472.25 1360.4 462 1360.4 462 C 1360.4 462 1367.15 448.25 1367.15 448.25 C 1367.15 448.25 1372.9 438 1372.9 438 C 1372.9 438 1381.4 422.5 1381.4 422.5 C 1381.4 422.5 1386.65 412.75 1386.65 412.75 C 1386.65 412.75 1384.9 410 1384.9 410 C 1384.9 410 1373.4 419 1373.4 419 C 1373.4 419 1349.65 443 1349.65 443 C 1349.65 443 1331.9 458.25 1331.9 458.25 C 1331.9 458.25 1306.9 481.75 1306.9 481.75 C 1306.9 481.75 1293.15 492 1293.15 492 C 1293.15 492 1280.65 493 1280.15 493 C 1279.65 493 1273.75 490.75 1273.75 490.75 C 1273.75 490.75 1270.25 479 1270.25 479 C 1270.25 479 1270.4 470.25 1270.4 470.25 C 1270.4 470.25 1277.15 457.25 1277.15 457.25 C 1277.15 457.25 1292.4 434.25 1292.4 434.25 C 1292.4 434.25 1301.65 420.75 1301.65 420.75 C 1301.65 420.75 1301.65 415 1301.65 415 C 1301.65 415 1295.4 421.75 1295.4 421.75 C 1295.4 421.75 1285.15 435.5 1285.15 435.5 C 1285.15 435.5 1273.15 446.5 1273.15 446.5 C 1273.15 446.5 1261.5 456.75 1261.5 456.75 C 1261.5 456.75 1257 452.75 1257 452.75 C 1257 452.75 1248.5 447.5 1248.5 447.5 C 1248.5 447.5 1236.5 447 1236.5 447 C 1236.5 447 1225 450.5 1225 450.5 C 1225 450.5 1211.75 462.25 1211.75 462.25 C 1211.75 462.25 1209.75 459 1210 459 C 1210.25 459 1220.4 441.25 1220.4 441.25 C 1220.4 441.25 1237.65 410.75 1237.65 410.75 C 1237.65 410.75 1245.15 390.25 1245.15 390.25 C 1245.15 390.25 1247.9 381.25 1247.9 381.25 C 1247.9 381.25 1227.4 398.75 1227.4 398.75 C 1227.4 398.75 1204.15 421.5 1204.15 421.5 C 1204.15 421.5 1182 439 1182 439 C 1182 439 1171.75 441.25 1171.75 441.25 C 1171.75 441.25 1162.65 439 1162.65 439 C 1162.65 439 1158.15 432.75 1158.15 432.75 C 1158.15 432.75 1156.9 425 1156.9 425 C 1156.9 425 1160.4 417 1160.4 417 C 1160.4 417 1164.4 405 1164.4 405 C 1164.4 405 1169.65 397 1169.65 397 C 1169.65 397 1179.65 381 1179.65 381 C 1179.65 381 1186.65 369.75 1186.65 369.75 C 1186.65 369.75 1183.65 366.25 1183.65 366.25 C 1183.65 366.25 1175.9 376.5 1175.9 376.5 C 1175.9 376.5 1159.15 394.25 1158.65 394.25 C 1158.15 394.25 1143.4 408.5 1143.4 408.5 C 1143.4 408.5 1137.15 415 1137.15 415 C 1137.15 415 1129.65 422 1129.65 422 C 1129.65 422 1121.65 424.75 1121.65 425 C 1121.65 425.25 1111.4 425 1111.4 425 C 1111.4 425 1106.9 425 1106.9 425 C 1106.9 425 1102.4 421.5 1102.4 421.5 C 1102.4 421.5 1099.65 417 1099.65 417 C 1099.65 417 1097.9 410.25 1097.9 410.25 C 1097.9 410.25 1100.15 402.25 1100.15 402.25 C 1100.15 402.25 1102.9 394.25 1102.9 394.25 C 1102.9 394.25 1112.15 379 1112.15 379 C 1112.15 379 1122.4 365.25 1122.4 365.25 C 1122.4 365.25 1131.5 349 1131.5 349 C 1131.5 349 1142.4 335.75 1142.4 335.75 C 1142.4 335.75 1149.4 324 1149.4 324 C 1149.4 324 1152.65 317.75 1152.65 317.75 C 1152.65 317.75 1151.65 313.75 1151.65 313.75 C 1151.65 313.75 1143.65 321 1143.65 321 C 1143.65 321 1120.15 344.5 1120.15 344.5 C 1120.15 344.5 1114.65 349 1114.65 349 C 1114.65 349 1092.15 371.5 1092.15 371.5 C 1092.15 371.5 1086.4 374.75 1086.4 374.75 C 1086.4 374.75 1081.65 377.75 1081.65 377.75 C 1081.65 377.75 1080.5 371.5 1080.5 371.5 C 1080.5 371.5 1074.75 361.75 1074.75 361.75 C 1074.75 361.75 1073.15 352.25 1073.15 352.25  Z "/>
  <path class="st17" id="path_17" d="M 638.4 268 C 638.4 268 631.4 262.5 631.4 262.5 C 631.4 262.5 627.4 256.25 627.4 256.25 C 627.4 256.25 628.15 242 628.15 242 C 628.15 242 634.5 216.75 634.5 216.75 C 634.5 216.75 640.15 198.5 640.15 198.5 C 640.15 198.5 639.9 182.75 640.15 182.75 C 640.4 182.75 641.4 143.75 641.4 143.75 C 641.4 143.75 640.9 138 640.9 138 C 640.9 138 641.9 131.25 641.9 131.25 C 641.9 131.25 644.9 124.5 644.9 124.5 C 644.9 124.5 646.9 119.5 646.9 119.5 C 646.9 119.5 651.4 114.25 651.4 114.25 C 651.4 114.25 656.65 109.75 656.65 109.75 C 656.65 109.75 663.4 106.25 663.4 106.25 C 663.4 106.25 670.15 105.25 670.15 105.25 C 670.15 105.25 674.4 104.75 674.4 104.75 C 674.4 104.75 680.65 107 680.65 107 C 680.65 107 689.15 109.75 689.15 109.75 C 689.15 109.75 694.4 112.75 694.4 112.75 C 694.4 112.75 701.15 117.75 701.15 117.75 C 701.15 117.75 712.9 124.25 712.9 124.25 C 712.9 124.25 728.4 134 728.4 134 C 728.4 134 740.4 142 740.4 142 C 740.4 142 748.4 146 748.4 146 C 748.4 146 755.65 151 755.65 151 C 755.65 151 765.4 156.75 765.4 156.75 C 765.4 156.75 771.65 159 771.65 159 C 771.65 159 777.4 159 777.4 159 C 777.4 159 776.65 126.75 776.65 126.75 C 776.65 126.75 775.65 123.75 775.65 123.75 C 775.65 123.75 775.15 99.75 775.15 99.75 C 775.15 99.75 773.9 95.75 773.9 95.75 C 773.9 95.75 773.9 91.75 773.9 91.75 C 773.9 91.75 771.65 85.5 771.65 85.5 C 771.65 85.5 768.65 77.5 768.65 77.5 C 768.65 77.5 766.4 69.5 766.15 69.5 C 765.9 69.5 763.65 61 763.65 61 C 763.65 61 762.4 52.5 762.4 52.5 C 762.4 52.5 763.65 45 763.65 45 C 763.65 45 767.15 38.25 767.15 38.25 C 767.15 38.25 772.65 36.5 772.65 36.5 C 772.65 36.5 781.9 36 781.9 36 C 781.9 36 794.9 41.75 794.9 41.75 C 794.9 41.75 804.65 46.75 804.65 46.75 C 804.65 46.75 818.4 54.75 818.4 54.75 C 818.4 54.75 832.15 64.25 832.15 64.5 C 832.15 64.75 843.4 72.5 843.4 72.5 C 843.4 72.5 858.65 85.5 858.65 85.5 C 858.65 85.5 864.65 89.75 864.65 89.75 C 864.65 89.75 874.15 95 874.15 95 C 874.15 95 881.15 95 881.15 95 C 881.15 95 886.15 90.5 886.15 90.5 C 886.15 90.5 889.15 81.25 889.15 81.25 C 889.15 81.25 892.4 73.25 892.4 73.25 C 892.4 73.25 898.15 66 898.15 66 C 898.15 66 904.9 62 904.9 62 C 904.9 62 913.9 63.75 913.9 63.75 C 913.9 63.75 921.5 65.45 922 65.45 C 922.5 65.45 930.9 69 930.9 69 C 930.9 69 938.9 75.25 938.9 75.25 C 938.9 75.25 950.15 84.75 950.15 84.75 C 950.15 84.75 962.65 104.75 962.65 104.75 C 962.65 104.75 972.4 120 972.4 120 C 972.4 120 979.9 131.5 979.9 131.5 C 979.9 131.5 983.9 137.75 983.9 137.75 C 983.9 137.75 993.4 144.5 993.4 144.5 C 993.4 144.5 996.4 152.25 996.4 152.25 C 996.4 152.25 995.25 154.75 995.25 154.75 C 995.25 154.75 963 154 963 154 C 963 154 958.9 149 958.9 149 C 958.9 149 953.65 141 953.65 141 C 953.65 141 948.65 131.75 948.65 131.75 C 948.65 131.75 941.9 122.75 941.9 122.75 C 941.9 122.75 934.9 112.5 934.9 112.5 C 934.9 112.5 928.65 102.75 928.65 102.75 C 928.65 102.75 924.15 97.75 924.15 97.75 C 924.15 97.75 919.65 94.75 919.65 94.75 C 919.65 94.75 915.65 92 915.65 92 C 915.65 92 911.15 94.75 911.15 94.75 C 911.15 94.75 907.15 106.25 907.15 106.25 C 907.15 106.25 899.65 114.25 899.65 114.25 C 899.65 114.25 892.9 119.25 892.9 119.25 C 892.9 119.25 884.9 123.25 884.4 123.25 C 883.9 123.25 871.15 122.75 871.15 122.75 C 871.15 122.75 861.9 119.25 861.4 119.25 C 860.9 119.25 849.15 113 849.15 113 C 849.15 113 838.4 105.5 838.4 105.5 C 838.4 105.5 828.9 97 828.9 97 C 828.9 97 813.9 85.5 813.9 85.5 C 813.9 85.5 804.4 79.25 804.4 79.25 C 804.4 79.25 799.15 74.75 799.15 74.75 C 799.15 74.75 796.9 76.5 796.9 76.5 C 796.9 76.5 800.4 89.5 800.4 89.5 C 800.4 89.5 802.65 105.5 802.65 105.5 C 802.65 105.5 803.15 129 803.15 129 C 803.15 129 803.25 161 803.25 161 C 803.25 161 801.9 167.25 801.9 167.25 C 801.9 167.25 798.65 175.25 798.65 175.25 C 798.65 175.25 790.15 183 790.15 183 C 790.15 183 783.25 186.5 783.25 186.5 C 783.25 186.5 768.4 186.5 768.4 186.5 C 768.4 186.5 754.4 182.5 754.4 182.5 C 754.4 182.5 746.65 178.5 746.65 178.5 C 746.65 178.5 729.65 167.5 729.65 167.5 C 729.65 167.5 714.9 158 714.9 158 C 714.9 158 701.15 148.75 701.15 148.75 C 701.15 148.75 687.25 140 687.25 140 C 687.25 140 676.65 133.75 676.65 133.75 C 676.65 133.75 671.15 132.5 671.15 132.5 C 671.15 132.5 666.75 138.75 666.75 138.75 C 666.75 138.75 668.15 152 668.15 152 C 668.15 152 668.9 177 668.9 177 C 668.9 177 667.15 180.25 667.15 180.25 C 667.15 180.25 667.65 191.75 667.65 191.75 C 667.65 191.75 665 205.25 665 205.25 C 665 205.25 662.65 218.5 662.65 218.5 C 662.65 218.5 657.9 235 657.9 235 C 657.9 235 655.15 245.75 655.15 245.75 C 655.15 245.75 659.75 251.5 659.75 251.5 C 659.75 251.5 654.5 256.5 654.5 256.5 C 654.5 256.5 645 266.25 645 266.25 C 645 266.25 641.5 269 641.5 269 C 641.5 269 638.4 268 638.4 268  Z "/>
</svg>